<?xml version="1.0" standalone="no"?>
<!DOCTYPE svg PUBLIC "-//W3C//DTD SVG 20010904//EN"
 "http://www.w3.org/TR/2001/REC-SVG-20010904/DTD/svg10.dtd">
<svg version="1.0" xmlns="http://www.w3.org/2000/svg"
 width="512.000000pt" height="512.000000pt" viewBox="0 0 1024.000000 1024.000000"
 preserveAspectRatio="xMidYMid meet">
<metadata>
Created by potrace 1.16, written by Peter Selinger 2001-2019
</metadata>
<g transform="translate(0.000000,1024.000000) scale(0.100000,-0.100000)"
fill="#B0B0B0" stroke="none">
<path d="M5034 9156 c-122 -56 -184 -154 -248 -396 -61 -233 -71 -256 -286
-695 -245 -499 -255 -525 -248 -669 7 -157 51 -225 328 -511 251 -258 285
-299 418 -498 136 -205 172 -331 125 -438 -68 -153 -273 -67 -468 196 -72 97
-154 169 -220 194 -107 40 -150 68 -214 140 -82 93 -123 114 -221 115 -177 0
-304 -135 -455 -484 -18 -41 -54 -119 -79 -172 -25 -53 -46 -100 -46 -103 0
-12 -245 -495 -325 -640 -45 -82 -115 -213 -155 -290 -40 -77 -76 -145 -81
-150 -4 -6 -48 -85 -97 -175 -133 -245 -188 -345 -247 -445 -28 -49 -108 -191
-177 -315 -131 -235 -152 -271 -257 -448 -175 -295 -306 -522 -328 -571 -13
-29 -45 -90 -72 -135 -26 -44 -74 -128 -106 -186 -32 -58 -96 -170 -143 -250
-46 -80 -101 -174 -122 -210 -148 -257 -191 -330 -233 -398 -220 -351 -223
-604 -10 -713 40 -20 63 -24 134 -24 116 0 204 43 383 189 137 111 244 167
383 200 32 7 83 20 113 29 30 8 107 27 170 42 152 35 372 109 545 183 215 91
307 120 483 147 256 40 361 84 434 182 80 109 99 229 68 428 -49 307 15 697
169 1029 49 106 201 363 272 461 154 212 232 302 310 362 21 15 66 50 100 77
163 124 401 191 589 166 274 -37 496 -184 741 -492 395 -495 579 -1041 524
-1554 -49 -467 45 -589 510 -659 157 -23 232 -45 385 -110 319 -135 407 -165
700 -235 341 -82 430 -123 645 -296 267 -214 499 -208 604 16 141 299 -222
752 -959 1196 -360 216 -633 395 -717 469 -86 75 -97 194 -22 226 61 25 146
-3 359 -120 267 -145 363 -169 443 -108 82 63 87 139 18 283 -44 94 -66 130
-220 364 -122 187 -351 562 -448 735 -19 33 -59 101 -88 150 -30 50 -75 128
-101 175 -99 180 -198 358 -234 420 -21 36 -67 121 -102 190 -98 188 -175 335
-226 430 -251 466 -789 1552 -1062 2145 -75 163 -274 592 -315 680 -84 178
-122 278 -167 444 -78 286 -122 360 -253 422 -74 36 -131 37 -201 5z m134
-192 c37 -25 71 -108 117 -287 64 -242 178 -505 585 -1342 170 -350 245 -506
350 -730 100 -212 431 -886 462 -940 6 -11 52 -96 101 -190 49 -93 96 -181
104 -194 9 -13 54 -94 101 -180 86 -159 137 -251 209 -376 22 -38 60 -106 85
-150 25 -44 77 -134 115 -200 38 -66 98 -169 132 -230 117 -204 144 -250 181
-310 20 -33 77 -125 125 -205 49 -80 103 -167 120 -195 18 -27 83 -128 145
-224 216 -336 215 -355 -11 -229 -279 156 -438 186 -573 109 -73 -42 -76 -39
-86 90 -12 147 -57 566 -80 749 -11 85 -27 210 -35 278 -20 165 6 134 -319
390 -192 152 -195 153 -196 51 0 -69 -20 -66 -92 14 -154 171 -415 332 -669
411 -556 174 -965 34 -1095 -374 -19 -63 -58 -110 -90 -110 -46 0 -49 16 -45
271 3 263 2 269 -55 269 -231 0 -751 -307 -871 -515 -46 -78 -57 -68 -63 55
-6 122 4 118 -130 65 -70 -27 -320 -142 -380 -174 -37 -20 -39 -45 -45 -661
-9 -786 -7 -806 92 -893 17 -15 35 -42 38 -60 4 -18 15 -50 25 -72 34 -76 35
-144 4 -237 -15 -46 -33 -90 -41 -99 -7 -8 -13 -20 -13 -25 0 -5 -9 -17 -20
-27 -24 -20 -25 -37 -4 -117 20 -79 14 -110 -9 -45 -35 98 -98 311 -117 398
-11 48 -31 120 -44 160 -46 136 -154 602 -185 797 -52 325 -51 324 -193 259
-51 -23 -106 -51 -123 -61 -33 -20 -85 -24 -85 -7 0 6 14 31 30 56 17 24 30
47 30 51 0 4 15 29 33 57 137 206 207 326 330 565 38 74 77 146 87 160 10 14
34 57 54 95 20 39 40 77 45 85 75 122 378 725 540 1075 85 183 167 338 196
369 35 38 71 34 109 -11 111 -129 177 -179 281 -212 66 -21 112 -60 182 -150
180 -234 318 -326 489 -326 250 0 404 226 335 492 -52 200 -241 477 -527 773
-431 446 -427 409 -128 995 172 338 260 551 314 760 61 239 109 308 178 259z
m847 -4264 c217 -36 439 -210 641 -502 17 -25 51 -58 75 -74 75 -51 71 1 76
-1066 4 -806 7 -949 19 -959 8 -7 61 -24 117 -40 117 -32 205 -60 297 -96 36
-14 99 -38 140 -53 41 -15 92 -35 113 -44 57 -25 56 -38 27 354 -5 74 -14 189
-20 254 -13 152 -10 155 82 75 40 -36 116 -97 170 -136 116 -86 113 -81 153
-368 14 -104 34 -245 45 -311 22 -136 24 -170 11 -178 -11 -7 -186 50 -323
105 -53 22 -101 39 -106 39 -6 0 -46 15 -89 33 -165 70 -304 110 -458 132
-308 43 -354 106 -310 425 37 273 9 535 -94 865 -40 125 -37 138 37 171 111
49 112 51 112 251 0 201 -2 205 -77 151 -119 -84 -221 -126 -267 -108 -13 4
-37 36 -56 72 -154 290 -436 596 -683 740 -79 46 -82 59 -31 145 64 109 210
154 399 123z m-3225 -1651 c8 -98 26 -181 66 -312 42 -138 46 -134 -142 -183
-154 -41 -209 -50 -217 -37 -3 4 41 103 98 220 80 162 109 233 126 305 35 152
56 154 69 7z m168 -751 c5 -7 22 -74 37 -148 37 -192 39 -192 254 -123 58 18
110 33 117 33 7 0 20 10 29 23 11 16 18 19 23 9 5 -6 35 -14 67 -17 69 -6 64
-3 72 -49 13 -80 -65 -126 -266 -156 -218 -32 -258 -45 -566 -170 -215 -88
-417 -156 -515 -174 -47 -9 -110 -23 -140 -31 -121 -32 -122 -27 -32 131 100
177 106 188 178 334 86 175 77 168 341 240 120 33 252 71 293 84 89 29 95 30
108 14z m6096 -875 c16 -48 86 -131 146 -171 63 -42 82 -62 62 -62 -24 0 -132
-94 -172 -149 -54 -74 -60 -75 -98 -8 -35 61 -74 97 -143 133 -58 29 -56 45
10 78 58 30 134 110 150 159 13 39 36 49 45 20z"/>
</g>
</svg>
